<?xml version="1.0"?>
<svg width="24" height="24" xmlns="http://www.w3.org/2000/svg" xmlns:svg="http://www.w3.org/2000/svg">
 <g class="layer">
  <title>Layer 1</title>
  <path d="m11.24,4.17c0.24,-0.66 0.35,-0.99 0.52,-1.09c0.15,-0.08 0.33,-0.08 0.48,0c0.17,0.1 0.28,0.43 0.52,1.09l1.53,4.41c0.06,0.19 0.1,0.28 0.15,0.35c0.06,0.06 0.12,0.11 0.2,0.14c0.08,0.04 0.19,0.04 0.39,0.04l4.66,0.1c0.7,0.01 1.05,0.02 1.19,0.15c0.13,0.12 0.18,0.29 0.15,0.46c-0.03,0.19 -0.32,0.4 -0.88,0.83l-3.71,2.81c-0.16,0.12 -0.24,0.18 -0.29,0.26c-0.04,0.07 -0.07,0.15 -0.07,0.23c-0.01,0.09 0.02,0.19 0.08,0.38l1.35,4.46c0.2,0.68 0.3,1.01 0.22,1.19c-0.07,0.15 -0.22,0.26 -0.39,0.28c-0.19,0.02 -0.48,-0.18 -1.06,-0.58l-3.82,-2.66c-0.17,-0.12 -0.25,-0.17 -0.34,-0.2c-0.08,-0.02 -0.16,-0.02 -0.24,0c-0.09,0.03 -0.17,0.08 -0.34,0.2l-3.82,2.66c-0.58,0.4 -0.87,0.6 -1.06,0.58c-0.17,-0.02 -0.31,-0.13 -0.39,-0.28c-0.08,-0.18 0.02,-0.51 0.23,-1.19l1.35,-4.46c0.05,-0.19 0.08,-0.29 0.08,-0.38c-0.01,-0.08 -0.04,-0.16 -0.08,-0.23c-0.05,-0.08 -0.13,-0.14 -0.29,-0.26l-3.71,-2.81c-0.56,-0.43 -0.84,-0.64 -0.88,-0.83c-0.03,-0.17 0.03,-0.34 0.15,-0.46c0.14,-0.13 0.49,-0.14 1.2,-0.15l4.66,-0.1c0.2,0 0.3,0 0.38,-0.04c0.08,-0.03 0.14,-0.08 0.2,-0.14c0.06,-0.07 0.09,-0.16 0.15,-0.35l1.53,-4.41z" fill="#f59e0e" id="svg_1" stroke="#f59e0e" stroke-linecap="round" stroke-linejoin="round" stroke-width="2"/>
 </g>
</svg>